<svg id="Capa_1" data-name="Capa 1" xmlns="http://www.w3.org/2000/svg" viewBox="0 0 511.99 512"><title>link-1</title><path d="M212.26,390.24l-60.33,60.33a64,64,0,1,1-90.51-90.49L182.1,239.4a64,64,0,0,1,90.49,0,21.33,21.33,0,0,0,30.17-30.17,106.64,106.64,0,0,0-150.83,0L31.25,329.91A106.66,106.66,0,1,0,182.1,480.74l60.33-60.33a21.33,21.33,0,0,0-30.17-30.17Z" transform="translate(-0.01 0)" fill="#656060"/><path d="M480.75,31.24a106.68,106.68,0,0,0-150.85,0l-72.39,72.38a21.33,21.33,0,0,0,30.17,30.17l72.39-72.38a64,64,0,0,1,90.51,90.49L317.84,284.64a64,64,0,0,1-90.49,0,21.33,21.33,0,0,0-30.17,30.17,106.65,106.65,0,0,0,150.83,0L480.75,182.07A106.65,106.65,0,0,0,480.75,31.24Z" transform="translate(-0.01 0)" fill="#656060"/></svg>